# xmcd
#
# Track frame offsets: 
#        150
#        15902
#        33160
#        56939
#        73943
#        96484
#        116936
#        132636
#        152434
#        170376
#        184797
#        207872
#        227463
#        248457
#        270898
#        290913
#        306279
#        327574
#
# Disc length: 4577 seconds
#
# Revision: 0
# Processed by: cddbd v1.5.2PL0 Copyright (c) Steve Scherf et al.
# Submitted via: ExactAudioCopy v0.99pb5
#
DISCID=0411df12
DTITLE=Regine Velasquez - 18 Greatest Hits - Volume 2
DYEAR=2010
DGENRE=Ballad
TTITLE0=Music And Me
TTITLE1=You Are My Song
TTITLE2=Pangarap Ko Ang Ibigin Ka
TTITLE3=Buhay Ang Buhay Ko
TTITLE4=Kailan
TTITLE5=I'll Never Love This Way Again
TTITLE6=Pangarap Na Bituin
TTITLE7=Hold Me In Your Arms
TTITLE8=One Love
TTITLE9=Hagkan
TTITLE10=Forevermore
TTITLE11=Perfect
TTITLE12=Araw Gabi
TTITLE13=Tuwing Umuulan
TTITLE14=First Time Ever I Saw Your Face
TTITLE15=Lost Without Your Love
TTITLE16=Hinahanap-Hanap Kita
TTITLE17=Sa Duyan Ng Pag-Ibig
EXTD=
EXTT0=
EXTT1=
EXTT2=
EXTT3=
EXTT4=
EXTT5=
EXTT6=
EXTT7=
EXTT8=
EXTT9=
EXTT10=
EXTT11=
EXTT12=
EXTT13=
EXTT14=
EXTT15=
EXTT16=
EXTT17=
PLAYORDER=
